<svg xmlns="http://www.w3.org/2000/svg" width="740" height="982" viewBox="0 0 740 982" fill="none"><rect width="740" height="982" fill="url(#paint0_linear_1519_5447)"/><g clip-path="url(#clip0_1519_5447)"><path d="M548.946 476.692C547.269 471.022 543.827 466.061 539.237 461.809C534.295 457.291 528.381 453.836 522.291 451.267C521.762 451.09 521.321 450.824 520.791 450.647C513.201 459.771 486.988 466.593 486.988 485.64C486.988 493.082 491.665 500.08 498.638 502.915C502.963 504.333 507.552 504.067 511.7 502.206C515.672 500.346 518.673 497.157 521.144 493.613C523.704 489.804 525.645 485.729 528.117 481.831C530.411 478.287 533.324 474.655 537.649 473.68C541.444 472.794 546.121 473.857 548.946 476.692ZM549.122 480.59C547.357 477.135 543.738 475.629 539.943 475.806C536.325 475.984 533.677 478.287 531.647 481.122C529.352 484.311 527.764 488.032 525.91 491.487C524.145 494.853 522.203 498.131 519.644 500.878C516.819 503.978 513.201 506.282 509.141 507.522C510.994 508.851 513.642 509.205 515.849 509.294C518.408 509.382 520.968 509.116 523.439 508.673C527.94 507.876 532.883 506.282 536.236 502.915C531.029 503.004 526.793 499.46 526.44 494.145C529.794 498.22 534.912 499.814 540.032 498.397C544.533 497.157 548.063 493.613 549.564 489.184C550.358 486.349 550.446 483.248 549.122 480.59ZM475.426 477.844C475.426 473.592 475.161 470.845 472.425 470.845C471.189 470.845 470.571 471.111 469.424 471.465C470.395 485.729 467.218 498.22 463.246 498.22C458.127 498.22 460.686 467.656 449.831 467.656C439.769 467.656 438.357 492.018 437.209 492.018C436.415 492.018 436.327 485.64 436.327 480.767C436.768 478.464 436.945 476.338 436.945 474.743C436.945 472.44 436.062 468.542 430.855 470.491C431.031 487.943 427.589 498.486 423.618 498.486C417.881 498.486 417.792 482.716 417.792 478.287C417.792 474.035 418.057 468.365 411.791 470.402C410.82 485.64 406.848 497.068 404.377 497.068C400.67 497.068 401.376 470.757 393.345 470.757C386.107 470.757 383.813 495.651 382.312 495.651C379.576 495.651 383.195 467.656 372.692 467.656C367.22 467.656 365.013 477.047 362.895 487.5C362.454 489.538 362.013 489.627 361.924 487.323C361.836 485.463 361.836 483.337 361.836 481.476C364.484 470.934 361.218 467.036 356.364 469.871C357.953 489.272 349.038 498.751 342.242 498.751C339.771 498.751 337.83 497.688 336.417 496.005C344.625 490.955 348.244 485.197 348.244 479.616C348.244 473.503 344.714 469.959 338.977 469.959C330.857 469.959 326.356 478.375 326.356 485.463C326.356 489.272 327.062 492.55 328.209 495.208C325.385 496.537 322.825 497.688 320.354 498.84C320.178 491.487 319.295 483.78 318.677 476.692C314.353 475.541 313.117 477.578 312.764 481.476C311.97 490.247 308.792 495.739 305.88 495.739C303.761 495.739 302.438 493.082 302.261 490.335C301.467 476.249 312.852 472.351 318.854 474.389C320.089 471.288 318.766 469.073 313.382 469.073C306.851 469.073 301.996 473.06 298.378 478.11C295.995 481.476 293.259 483.957 289.552 486.88C289.64 485.994 289.728 485.197 289.728 484.4C289.728 474.478 284.344 470.137 279.225 470.137C274.989 470.137 272.341 472.706 270.752 476.604C270.399 472.706 269.605 471.022 267.31 471.022C266.339 471.022 265.016 471.288 263.515 471.997C264.221 474.212 264.398 479.084 264.398 482.273C264.398 494.233 260.956 499.549 257.69 499.549C253.895 499.549 253.365 485.374 253.012 479.882C252.571 479.704 252.041 479.527 251.159 479.527C247.805 479.527 247.364 484.134 246.481 488.298C245.51 492.993 242.863 498.84 238.891 498.84C236.508 498.84 235.007 496.537 234.831 492.373C234.478 483.957 241.45 473.946 252.395 477.047C253.807 473.68 251.6 471.111 247.011 471.111C238.979 471.111 232.36 477.135 229.447 484.222C226.535 490.778 221.416 500.346 210.913 500.346C203.499 500.346 197.939 493.879 197.939 480.324C197.939 468.631 205.264 457.557 213.119 457.557C218.591 457.557 219.827 462.961 219.386 468.01C222.21 470.314 226.888 468.188 226.888 462.429C226.888 458.531 223.71 451.798 213.472 451.798C200.763 451.798 189.554 464.555 189.554 481.21C189.554 497.422 197.762 506.99 209.324 506.99C216.65 506.99 223.534 502.827 228.3 495.031C229.535 501.763 234.125 504.687 237.567 504.687C243.127 504.687 246.746 501.055 248.776 496.182C250.012 501.055 252.659 504.687 256.984 504.687C260.073 504.687 262.456 503.092 264.221 500.612C263.515 517.71 262.633 528.518 272.694 526.392C271.105 521.519 270.664 512.749 270.664 504.775C270.664 483.071 274.195 475.895 278.696 475.895C281.961 475.895 283.02 480.059 283.02 484.488C283.02 486.88 282.756 489.538 282.226 492.018C276.754 495.473 272.341 498.22 272.341 501.763C272.341 504.51 274.371 504.775 276.136 504.775C280.373 504.775 285.404 500.612 288.228 492.816C290.699 491.31 293.17 489.627 295.465 487.323C295.377 488.12 295.377 488.918 295.377 489.715C295.377 497.511 298.731 502.206 304.203 502.206C308.439 502.206 311.617 499.194 313.911 494.676C314.088 497.245 314.176 499.726 314.176 501.852C305.527 505.839 296.083 509.914 296.083 521.165C296.083 527.012 300.231 531.353 305.703 531.353C317.706 531.353 320.442 518.684 320.531 503.89C324.414 502.206 327.327 500.878 330.681 499.194C333.593 502.827 337.476 504.598 341.007 504.598C347.803 504.598 352.834 500.966 356.982 493.702C357.688 499.283 359.1 504.598 362.101 504.598C367.485 504.598 368.544 476.427 372.515 476.427C375.604 476.427 373.045 506.902 381.165 506.902C388.049 506.902 389.373 480.059 392.727 480.059C395.11 480.059 395.286 504.598 402.788 504.598C406.495 504.598 410.467 500.169 412.497 490.778C413.468 496.98 416.557 504.598 422.647 504.598C426.177 504.598 429.266 500.966 431.649 496.182C432.267 501.143 433.679 504.598 436.415 504.598C443.476 504.598 443.211 476.515 448.771 476.515C453.096 476.515 451.772 504.598 462.099 504.598C467.041 504.598 469.336 500.435 470.748 495.119C472.69 502.915 475.691 504.598 478.25 504.598C479.839 504.598 481.074 504.067 482.663 502.118C474.72 498.663 475.426 485.994 475.426 477.844ZM306.321 526.037C303.85 526.037 302.526 523.645 302.526 520.988C302.526 513.812 307.821 509.914 314.264 506.636C314 522.494 310.293 526.037 306.321 526.037ZM338.536 475.009C340.919 475.009 342.331 477.224 342.066 480.413C341.801 484.134 339.065 488.475 334.299 491.841C331.916 484.843 333.77 475.009 338.536 475.009ZM410.908 460.214C410.908 457.822 412.762 455.873 415.056 455.785C417.351 455.696 418.94 457.557 418.94 459.949C418.94 462.341 417.351 464.29 415.056 464.378C412.762 464.467 410.908 462.606 410.908 460.214ZM468.542 461.632C468.542 459.417 470.218 457.468 472.337 457.38C474.455 457.291 476.132 459.063 476.132 461.278C476.132 463.492 474.455 465.441 472.337 465.53C470.218 465.618 468.542 463.847 468.542 461.632Z" fill="white"/></g><defs><linearGradient id="paint0_linear_1519_5447" x1="740" y1="0" x2="-204.165" y2="710.809" gradientUnits="userSpaceOnUse"><stop stop-color="#12ABDB"/><stop offset="1" stop-color="#0070AD"/></linearGradient><clipPath id="clip0_1519_5447"><rect width="365.75" height="88" fill="white" transform="translate(187.125 447)"/></clipPath></defs></svg>